<?xml version="1.0" encoding="UTF-8" standalone="no"?>
<svg
   xmlns:dc="http://purl.org/dc/elements/1.1/"
   xmlns:cc="http://creativecommons.org/ns#"
   xmlns:rdf="http://www.w3.org/1999/02/22-rdf-syntax-ns#"
   xmlns:svg="http://www.w3.org/2000/svg"
   xmlns="http://www.w3.org/2000/svg"
   xmlns:sodipodi="http://sodipodi.sourceforge.net/DTD/sodipodi-0.dtd"
   xmlns:inkscape="http://www.inkscape.org/namespaces/inkscape"
   version="1.1"
   id="Capa_1"
   x="0px"
   y="0px"
   viewBox="0 0 15.199031 15.199031"
   xml:space="preserve"
   width="16"
   height="16"
   sodipodi:docname="sync-arrows.svg"
   inkscape:version="0.92.1 r15371"><metadata
     id="metadata19"><rdf:RDF><cc:Work
         rdf:about=""><dc:format>image/svg+xml</dc:format><dc:type
           rdf:resource="http://purl.org/dc/dcmitype/StillImage" /><dc:title></dc:title></cc:Work></rdf:RDF></metadata><defs
     id="defs17" /><sodipodi:namedview
     pagecolor="#ffffff"
     bordercolor="#666666"
     borderopacity="1"
     objecttolerance="10"
     gridtolerance="10"
     guidetolerance="10"
     inkscape:pageopacity="0"
     inkscape:pageshadow="2"
     inkscape:window-width="1920"
     inkscape:window-height="1017"
     id="namedview15"
     showgrid="false"
     inkscape:zoom="20.85965"
     inkscape:cx="31.707801"
     inkscape:cy="9.9857168"
     inkscape:window-x="-8"
     inkscape:window-y="-8"
     inkscape:window-maximized="1"
     inkscape:current-layer="Capa_1" /><g
     id="g12"
     transform="matrix(0.02884519,0,0,0.02884519,0.36973754,0.55644338)"><g
       id="g10"><g
         id="g4"><path
           d="M 424.096,1.493 C 416.833,-1.529 408.474,0.119 402.91,5.682 L 352.642,55.951 C 272.018,-2.525 158.398,4.308 85.777,76.931 L 65.21,97.499 c -15.796,15.794 -15.796,41.443 0,57.239 7.897,7.897 18.266,11.846 28.602,11.846 10.371,0 20.722,-3.948 28.619,-11.846 L 143,134.169 C 183.946,93.207 246.353,86.683 294.304,114.324 l -45.152,45.117 c -5.564,5.562 -7.211,13.94 -4.225,21.186 3.023,7.28 10.112,12.018 17.976,12.018 h 153.743 c 10.747,0 19.451,-8.722 19.451,-19.436 V 19.451 C 436.096,11.588 431.375,4.48 424.096,1.493 Z"
           data-original="#000000"
           class="active-path"
           data-old_color="#e0e0e0"
           id="path2"
           inkscape:connector-curvature="0"
           style="fill:#e0e0e0" /></g><g
         id="g8"><path
           d="m 363.939,331.64 -20.551,20.567 c -23.676,23.691 -55.195,36.74 -88.691,36.74 -22.371,0 -43.796,-5.94 -62.648,-16.86 l 45.169,-45.186 c 5.58,-5.563 7.229,-13.907 4.225,-21.185 -3.022,-7.247 -10.112,-11.984 -17.976,-11.984 H 69.725 c -10.747,0 -19.451,8.689 -19.451,19.435 v 153.76 c 0,7.861 4.738,14.936 12,17.958 7.262,3.02 15.639,1.337 21.202,-4.225 l 50.201,-50.199 c 35.006,25.442 76.896,39.417 121.02,39.417 55.127,0 106.941,-21.46 145.932,-60.466 l 20.549,-20.533 c 15.794,-15.83 15.794,-41.444 0,-57.239 -15.813,-15.795 -41.445,-15.795 -57.239,0 z"
           data-original="#000000"
           class="active-path"
           data-old_color="#e0e0e0"
           id="path6"
           inkscape:connector-curvature="0"
           style="fill:#e0e0e0" /></g></g></g></svg>