<?xml version="1.0" encoding="UTF-8" standalone="no"?>
<svg
   xmlns:dc="http://purl.org/dc/elements/1.1/"
   xmlns:cc="http://creativecommons.org/ns#"
   xmlns:rdf="http://www.w3.org/1999/02/22-rdf-syntax-ns#"
   xmlns:svg="http://www.w3.org/2000/svg"
   xmlns="http://www.w3.org/2000/svg"
   xmlns:sodipodi="http://sodipodi.sourceforge.net/DTD/sodipodi-0.dtd"
   xmlns:inkscape="http://www.inkscape.org/namespaces/inkscape"
   width="16"
   height="16"
   version="1.1"
   viewBox="0 0 16 16"
   id="svg127"
   sodipodi:docname="icon_reload_small.svg"
   inkscape:version="0.92.1 r15371">
  <metadata
     id="metadata133">
    <rdf:RDF>
      <cc:Work
         rdf:about="">
        <dc:format>image/svg+xml</dc:format>
        <dc:type
           rdf:resource="http://purl.org/dc/dcmitype/StillImage" />
        <dc:title></dc:title>
      </cc:Work>
    </rdf:RDF>
  </metadata>
  <defs
     id="defs131" />
  <sodipodi:namedview
     pagecolor="#ffffff"
     bordercolor="#666666"
     borderopacity="1"
     objecttolerance="10"
     gridtolerance="10"
     guidetolerance="10"
     inkscape:pageopacity="0"
     inkscape:pageshadow="2"
     inkscape:window-width="640"
     inkscape:window-height="480"
     id="namedview129"
     showgrid="false"
     inkscape:zoom="16.857143"
     inkscape:cx="7"
     inkscape:cy="7"
     inkscape:window-x="0"
     inkscape:window-y="0"
     inkscape:window-maximized="0"
     inkscape:current-layer="svg127" />
  <g
     transform="matrix(1.144339,0,0,1.144339,-0.00379733,-1188.158)"
     id="g125"
     style="fill:#e0e0e0;fill-opacity:0.99607999">
    <path
       d="m 8,1039.4 a 6,6 0 0 0 -6,6 h 2 a 4,4 0 0 1 4,-4 4,4 0 0 1 4,4 4,4 0 0 1 -4,4 v 2 a 6,6 0 0 0 6,-6 6,6 0 0 0 -6,-6 z"
       id="path121"
       inkscape:connector-curvature="0" />
    <path
       transform="matrix(0,-1.1926,1.5492,0,-1618,1050.3)"
       d="m 4.118,1048.3 -1.6771,-0.9683 -1.6771,-0.9682 1.6771,-0.9683 1.6771,-0.9682 -1e-7,1.9365 z"
       id="path123"
       inkscape:connector-curvature="0" />
  </g>
</svg>
